<svg width="40" height="40" viewBox="0 0 40 40" fill="none" xmlns="http://www.w3.org/2000/svg">
<path d="M21.2483 35H23.7483V38.75L28.7483 35H36.2483C36.9113 35 37.5472 34.7366 38.0161 34.2678C38.4849 33.7989 38.7483 33.163 38.7483 32.5V25C38.7483 24.337 38.4849 23.7011 38.0161 23.2322C37.5472 22.7634 36.9113 22.5 36.2483 22.5H21.2483C20.5853 22.5 19.9494 22.7634 19.4805 23.2322C19.0117 23.7011 18.7483 24.337 18.7483 25V32.5C18.7483 33.163 19.0117 33.7989 19.4805 34.2678C19.9494 34.7366 20.5853 35 21.2483 35V35Z" stroke="#1174DC" stroke-width="2" stroke-linecap="round" stroke-linejoin="round"/>
<path d="M3.91333 28.125C3.91333 29.2853 4.37427 30.3981 5.19474 31.2186C6.01521 32.0391 7.12801 32.5 8.28833 32.5C9.44865 32.5 10.5615 32.0391 11.3819 31.2186C12.2024 30.3981 12.6633 29.2853 12.6633 28.125C12.6633 26.9647 12.2024 25.8519 11.3819 25.0314C10.5615 24.2109 9.44865 23.75 8.28833 23.75C7.12801 23.75 6.01521 24.2109 5.19474 25.0314C4.37427 25.8519 3.91333 26.9647 3.91333 28.125V28.125Z" stroke="#1174DC" stroke-width="2" stroke-linecap="round" stroke-linejoin="round"/>
<path d="M15.3334 38.75C14.8238 37.2888 13.8723 36.0224 12.6107 35.1262C11.3491 34.2301 9.84001 33.7487 8.29254 33.7487C6.74507 33.7487 5.23594 34.2301 3.97436 35.1262C2.71278 36.0224 1.76126 37.2888 1.25171 38.75" stroke="#1174DC" stroke-width="2" stroke-linecap="round" stroke-linejoin="round"/>
<path d="M27.3315 6.875C27.3315 8.03532 27.7925 9.14812 28.613 9.96859C29.4334 10.7891 30.5462 11.25 31.7065 11.25C32.8669 11.25 33.9797 10.7891 34.8001 9.96859C35.6206 9.14812 36.0815 8.03532 36.0815 6.875C36.0815 5.71468 35.6206 4.60188 34.8001 3.78141C33.9797 2.96094 32.8669 2.5 31.7065 2.5C30.5462 2.5 29.4334 2.96094 28.613 3.78141C27.7925 4.60188 27.3315 5.71468 27.3315 6.875V6.875Z" stroke="#1174DC" stroke-width="2" stroke-linecap="round" stroke-linejoin="round"/>
<path d="M38.7482 17.5C38.2386 16.0388 37.2871 14.7724 36.0255 13.8762C34.7639 12.9801 33.2548 12.4987 31.7073 12.4987C30.1599 12.4987 28.6507 12.9801 27.3892 13.8762C26.1276 14.7724 25.1761 16.0388 24.6665 17.5" stroke="#1174DC" stroke-width="2" stroke-linecap="round" stroke-linejoin="round"/>
<path d="M27.4983 26.25H33.7483" stroke="#1174DC" stroke-width="2" stroke-linecap="round" stroke-linejoin="round"/>
<path d="M23.7483 30H33.7483" stroke="#1174DC" stroke-width="2" stroke-linecap="round" stroke-linejoin="round"/>
<path d="M18.7483 13.75H16.2483V17.5L11.2483 13.75H3.74829C3.08525 13.75 2.44936 13.4866 1.98052 13.0178C1.51168 12.5489 1.24829 11.913 1.24829 11.25V3.75C1.24829 3.08696 1.51168 2.45107 1.98052 1.98223C2.44936 1.51339 3.08525 1.25 3.74829 1.25H18.7483C19.4113 1.25 20.0472 1.51339 20.5161 1.98223C20.9849 2.45107 21.2483 3.08696 21.2483 3.75V11.25C21.2483 11.913 20.9849 12.5489 20.5161 13.0178C20.0472 13.4866 19.4113 13.75 18.7483 13.75V13.75Z" stroke="#1174DC" stroke-width="2" stroke-linecap="round" stroke-linejoin="round"/>
<path d="M12.4983 5H6.24829" stroke="#1174DC" stroke-width="2" stroke-linecap="round" stroke-linejoin="round"/>
<path d="M16.2483 8.75H6.24829" stroke="#1174DC" stroke-width="2" stroke-linecap="round" stroke-linejoin="round"/>
</svg>
