<svg width="24" height="24" viewBox="0 0 24 24" fill="none" xmlns="http://www.w3.org/2000/svg">
<path d="M12.631 11.158C12.6663 11.1309 12.6937 11.0948 12.7104 11.0535C12.727 11.0122 12.7324 10.9672 12.7259 10.9232C12.7194 10.8792 12.7012 10.8377 12.6733 10.803C12.6453 10.7683 12.6086 10.7417 12.567 10.726C12.228 10.598 11.873 10.466 11.498 10.326L10.87 10.096C10.795 10.0078 10.747 9.89981 10.732 9.785C10.6396 9.35386 10.6596 8.90621 10.79 8.485C11.3221 7.9082 11.7275 7.22631 11.98 6.48329C12.2325 5.74026 12.3265 4.95258 12.256 4.171C12.256 1.756 10.677 0 8.5 0C6.323 0 4.744 1.756 4.744 4.174C4.67379 4.95216 4.76705 5.73641 5.01779 6.4764C5.26853 7.2164 5.67122 7.8958 6.2 8.471C6.34393 8.89479 6.36918 9.34989 6.273 9.787C6.25767 9.90057 6.21091 10.0076 6.138 10.096L5.507 10.328C3.06 11.228 1.292 11.878 0.753 12.954C0.268617 14.0741 0.0126189 15.2797 0 16.5C0 16.6326 0.0526784 16.7598 0.146447 16.8536C0.240215 16.9473 0.367392 17 0.5 17H9.294C9.35627 16.9998 9.41623 16.9764 9.46225 16.9345C9.50827 16.8925 9.53705 16.835 9.543 16.773C9.64293 15.6748 9.96882 14.6091 10.5002 13.6428C11.0316 12.6765 11.7571 11.8306 12.631 11.158Z" fill="#1174DC"/>
<path d="M17.5 11C16.2144 11 14.9577 11.3812 13.8888 12.0954C12.8199 12.8097 11.9868 13.8248 11.4948 15.0126C11.0028 16.2003 10.8741 17.5072 11.1249 18.7681C11.3757 20.029 11.9948 21.1872 12.9038 22.0962C13.8128 23.0052 14.971 23.6243 16.2319 23.8751C17.4928 24.1259 18.7997 23.9972 19.9874 23.5052C21.1752 23.0132 22.1903 22.1801 22.9046 21.1112C23.6188 20.0423 24 18.7856 24 17.5C23.9979 15.7767 23.3124 14.1247 22.0939 12.9061C20.8753 11.6876 19.2233 11.0021 17.5 11ZM22 17.5C22 17.7652 21.8946 18.0196 21.7071 18.2071C21.5196 18.3946 21.2652 18.5 21 18.5H19C18.8674 18.5 18.7402 18.5527 18.6464 18.6464C18.5527 18.7402 18.5 18.8674 18.5 19V21C18.5 21.2652 18.3946 21.5196 18.2071 21.7071C18.0196 21.8946 17.7652 22 17.5 22C17.2348 22 16.9804 21.8946 16.7929 21.7071C16.6054 21.5196 16.5 21.2652 16.5 21V19C16.5 18.8674 16.4473 18.7402 16.3536 18.6464C16.2598 18.5527 16.1326 18.5 16 18.5H14C13.7348 18.5 13.4804 18.3946 13.2929 18.2071C13.1054 18.0196 13 17.7652 13 17.5C13 17.2348 13.1054 16.9804 13.2929 16.7929C13.4804 16.6054 13.7348 16.5 14 16.5H16C16.1326 16.5 16.2598 16.4473 16.3536 16.3536C16.4473 16.2598 16.5 16.1326 16.5 16V14C16.5 13.7348 16.6054 13.4804 16.7929 13.2929C16.9804 13.1054 17.2348 13 17.5 13C17.7652 13 18.0196 13.1054 18.2071 13.2929C18.3946 13.4804 18.5 13.7348 18.5 14V16C18.5 16.1326 18.5527 16.2598 18.6464 16.3536C18.7402 16.4473 18.8674 16.5 19 16.5H21C21.2652 16.5 21.5196 16.6054 21.7071 16.7929C21.8946 16.9804 22 17.2348 22 17.5Z" fill="#1174DC"/>
</svg>
