<svg width="16" height="16" viewBox="0 0 16 16" fill="none" xmlns="http://www.w3.org/2000/svg">
<path d="M10.8571 11.4284V14.2856C10.8571 14.5887 10.7367 14.8794 10.5224 15.0937C10.3081 15.308 10.0174 15.4284 9.71427 15.4284H1.71427C1.41116 15.4284 1.12047 15.308 0.906146 15.0937C0.691819 14.8794 0.571411 14.5887 0.571411 14.2856V1.71415C0.571411 1.41104 0.691819 1.12035 0.906146 0.906024C1.12047 0.691697 1.41116 0.571289 1.71427 0.571289H9.71427C10.0174 0.571289 10.3081 0.691697 10.5224 0.906024C10.7367 1.12035 10.8571 1.41104 10.8571 1.71415V4.57129" stroke="#FA3434" stroke-width="1.14286" stroke-linecap="round" stroke-linejoin="round"/>
<path d="M7.42853 8H15.4285" stroke="#FA3434" stroke-width="1.14286" stroke-linecap="round" stroke-linejoin="round"/>
<path d="M13.7143 6.28564L15.4286 7.99993L13.7143 9.71422" stroke="#FA3434" stroke-width="1.14286" stroke-linecap="round" stroke-linejoin="round"/>
</svg>
