<svg width="14" height="16" viewBox="0 0 14 16" fill="none" xmlns="http://www.w3.org/2000/svg">
    <path d="M11.6001 6.38563V4.70083C11.6001 4.09675 11.4811 3.49858 11.2499 2.94049C11.0187 2.38239 10.6799 1.87529 10.2527 1.44814C9.82559 1.02099 9.31849 0.682156 8.7604 0.450984C8.2023 0.219813 7.60413 0.10083 7.00005 0.10083C6.39597 0.10083 5.79781 0.219813 5.23971 0.450984C4.68161 0.682156 4.17451 1.02099 3.74736 1.44814C3.32021 1.87529 2.98138 2.38239 2.75021 2.94049C2.51903 3.49858 2.40005 4.09675 2.40005 4.70083V6.38563C1.8863 6.51828 1.43099 6.81744 1.10531 7.23633C0.779632 7.65522 0.601952 8.17023 0.600052 8.70083V13.5008C0.600052 14.1374 0.852908 14.7478 1.303 15.1979C1.75308 15.648 2.36353 15.9008 3.00005 15.9008H11.0001C11.6366 15.9008 12.247 15.648 12.6971 15.1979C13.1472 14.7478 13.4001 14.1374 13.4001 13.5008V8.70083C13.3982 8.17023 13.2205 7.65522 12.8948 7.23633C12.5691 6.81744 12.1138 6.51828 11.6001 6.38563ZM7.00005 12.7008C6.6836 12.7008 6.37426 12.607 6.11114 12.4312C5.84802 12.2554 5.64294 12.0055 5.52184 11.7131C5.40074 11.4208 5.36906 11.0991 5.4308 10.7887C5.49253 10.4783 5.64492 10.1932 5.86868 9.96946C6.09245 9.7457 6.37754 9.59331 6.68791 9.53157C6.99828 9.46984 7.31998 9.50152 7.61235 9.62262C7.90471 9.74372 8.15459 9.9488 8.3304 10.2119C8.50621 10.475 8.60005 10.7844 8.60005 11.1008C8.60005 11.5252 8.43148 11.9321 8.13142 12.2322C7.83136 12.5323 7.4244 12.7008 7.00005 12.7008ZM9.60005 6.30083H4.40005V4.70083C4.40005 4.01127 4.67398 3.34995 5.16157 2.86235C5.64917 2.37476 6.31049 2.10083 7.00005 2.10083C7.68961 2.10083 8.35093 2.37476 8.83853 2.86235C9.32612 3.34995 9.60005 4.01127 9.60005 4.70083V6.30083Z" fill="white"/>
</svg>
