<svg width="24" height="24" viewBox="0 0 24 24" fill="none" xmlns="http://www.w3.org/2000/svg">
<path d="M12 20C10.0115 19.9979 8.1051 19.207 6.69904 17.801C5.29297 16.3949 4.50212 14.4885 4.5 12.5V10C4.5 9.73478 4.39464 9.48043 4.20711 9.29289C4.01957 9.10536 3.76522 9 3.5 9C3.23478 9 2.98043 9.10536 2.79289 9.29289C2.60536 9.48043 2.5 9.73478 2.5 10V12.5C2.50289 14.8078 3.34454 17.0359 4.86818 18.7693C6.39183 20.5027 8.4936 21.6232 10.782 21.922C10.8424 21.9296 10.8979 21.959 10.938 22.0047C10.9782 22.0504 11.0002 22.1092 11 22.17V23C11 23.2652 11.1054 23.5196 11.2929 23.7071C11.4804 23.8946 11.7348 24 12 24C12.2652 24 12.5196 23.8946 12.7071 23.7071C12.8946 23.5196 13 23.2652 13 23V22.17C12.9998 22.1092 13.0218 22.0504 13.062 22.0047C13.1021 21.959 13.1576 21.9296 13.218 21.922C14.5915 21.7443 15.909 21.2663 17.077 20.522C17.1087 20.5019 17.1354 20.475 17.1553 20.4432C17.1751 20.4114 17.1876 20.3756 17.1917 20.3383C17.1958 20.3011 17.1915 20.2634 17.1791 20.228C17.1667 20.1926 17.1465 20.1605 17.12 20.134L16.029 19.043C15.9902 19.0045 15.9399 18.9797 15.8857 18.9724C15.8316 18.9652 15.7765 18.976 15.729 19.003C14.5952 19.6573 13.309 20.0011 12 20Z" fill="#FA3434"/>
<path d="M6.427 9.44698C6.3921 9.41199 6.3476 9.38813 6.29914 9.37841C6.25068 9.3687 6.20043 9.37357 6.15473 9.3924C6.10903 9.41123 6.06995 9.44319 6.04241 9.48423C6.01487 9.52527 6.00011 9.57356 6 9.62298V12.5C6.00009 13.5028 6.25152 14.4895 6.7313 15.3701C7.21108 16.2507 7.90391 16.9969 8.74647 17.5407C9.58902 18.0845 10.5544 18.4084 11.5544 18.4829C12.5545 18.5573 13.5572 18.38 14.471 17.967C14.507 17.9501 14.5385 17.9249 14.5629 17.8934C14.5872 17.862 14.6037 17.8251 14.6109 17.786C14.6181 17.7469 14.6159 17.7066 14.6045 17.6685C14.593 17.6304 14.5726 17.5956 14.545 17.567L6.427 9.44698Z" fill="#FA3434"/>
<path d="M23.707 22.3L19.755 18.348C19.7129 18.3063 19.6871 18.2509 19.6824 18.1919C19.6776 18.1328 19.6941 18.074 19.729 18.026C20.8841 16.4153 21.5036 14.4822 21.5 12.5V10C21.5 9.73483 21.3946 9.48048 21.2071 9.29294C21.0196 9.1054 20.7652 9.00005 20.5 9.00005C20.2348 9.00005 19.9804 9.1054 19.7929 9.29294C19.6054 9.48048 19.5 9.73483 19.5 10V12.5C19.5019 13.9162 19.1006 15.3036 18.343 16.5C18.3229 16.5317 18.2959 16.5583 18.264 16.5781C18.2322 16.5978 18.1963 16.6101 18.159 16.614C18.1225 16.6179 18.0856 16.6135 18.0509 16.6012C18.0163 16.5889 17.9849 16.5691 17.959 16.543L17.231 15.816C17.1928 15.7771 17.1683 15.7267 17.1612 15.6726C17.1542 15.6184 17.165 15.5635 17.192 15.516C17.7244 14.6003 18.0033 13.5593 18 12.5V6.00005C17.9994 4.55721 17.4788 3.16292 16.5338 2.07267C15.5887 0.982429 14.2824 0.26925 12.8543 0.063824C11.4261 -0.141602 9.97178 0.174484 8.75774 0.954161C7.5437 1.73384 6.65128 2.92488 6.244 4.30905C6.23152 4.35052 6.20852 4.38806 6.17724 4.41802C6.14596 4.44797 6.10746 4.46932 6.06548 4.47999C6.02351 4.49066 5.97948 4.49029 5.93769 4.47891C5.8959 4.46753 5.85777 4.44553 5.827 4.41505L1.707 0.300048C1.51783 0.115698 1.26414 0.0125269 1 0.0125269C0.735861 0.0125269 0.482168 0.115698 0.293 0.300048C0.105529 0.487575 0.000213623 0.741884 0.000213623 1.00705C0.000213623 1.27221 0.105529 1.52652 0.293 1.71405L22.293 23.714L22.3 23.721C22.4917 23.892 22.7418 23.9826 22.9985 23.9741C23.2552 23.9656 23.4988 23.8587 23.6788 23.6754C23.8588 23.4922 23.9614 23.2468 23.9653 22.99C23.9693 22.7332 23.8743 22.4847 23.7 22.296L23.707 22.3Z" fill="#FA3434"/>
</svg>
