<svg width="24" height="24" viewBox="0 0 24 24" fill="none" xmlns="http://www.w3.org/2000/svg">
<path d="M22 24H13C12.4696 24 11.9609 23.7893 11.5858 23.4142C11.2107 23.0391 11 22.5304 11 22V11C11 10.4696 11.2107 9.96086 11.5858 9.58579C11.9609 9.21071 12.4696 9 13 9H22C22.5304 9 23.0391 9.21071 23.4142 9.58579C23.7893 9.96086 24 10.4696 24 11V22C24 22.5304 23.7893 23.0391 23.4142 23.4142C23.0391 23.7893 22.5304 24 22 24ZM13 11V21H22V11H13Z" fill="#1174DC"/>
<path d="M9 18H2V2H16V7H18V2C18 1.46957 17.7893 0.960859 17.4142 0.585786C17.0391 0.210714 16.5304 0 16 0L2 0C1.46957 0 0.960859 0.210714 0.585786 0.585786C0.210714 0.960859 0 1.46957 0 2L0 20C0 20.5304 0.210714 21.0391 0.585786 21.4142C0.960859 21.7893 1.46957 22 2 22H9V18Z" fill="#1174DC"/>
</svg>
