<svg width="14" height="16" viewBox="0 0 14 16" fill="none" xmlns="http://www.w3.org/2000/svg">
    <path d="M11.0001 6.30078H4.4001V4.70078C4.39975 4.13028 4.58705 3.57549 4.93313 3.12195C5.27921 2.66841 5.76486 2.34128 6.31522 2.191C6.86558 2.04072 7.45008 2.07563 7.97864 2.29035C8.50719 2.50507 8.95046 2.88767 9.2401 3.37918C9.37504 3.60769 9.59523 3.77324 9.85223 3.8394C10.1092 3.90556 10.382 3.86692 10.6105 3.73198C10.839 3.59704 11.0046 3.37685 11.0707 3.11985C11.1369 2.86285 11.0982 2.59009 10.9633 2.36158C10.4501 1.49306 9.66564 0.817276 8.73074 0.438212C7.79584 0.0591478 6.76228 -0.00218385 5.78911 0.263655C4.81594 0.529495 3.9571 1.10777 3.34476 1.90949C2.73241 2.71122 2.4005 3.69196 2.4001 4.70078V6.38558C1.88634 6.51823 1.43103 6.81739 1.10535 7.23628C0.779678 7.65517 0.601998 8.17018 0.600098 8.70078V13.5008C0.600098 14.1373 0.852954 14.7477 1.30304 15.1978C1.75313 15.6479 2.36358 15.9008 3.0001 15.9008H11.0001C11.6366 15.9008 12.2471 15.6479 12.6972 15.1978C13.1472 14.7477 13.4001 14.1373 13.4001 13.5008V8.70078C13.4001 8.06426 13.1472 7.45381 12.6972 7.00372C12.2471 6.55364 11.6366 6.30078 11.0001 6.30078ZM7.0001 12.7008C6.68365 12.7008 6.3743 12.6069 6.11119 12.4311C5.84807 12.2553 5.64299 12.0054 5.52189 11.7131C5.40079 11.4207 5.3691 11.099 5.43084 10.7886C5.49258 10.4783 5.64496 10.1932 5.86873 9.96941C6.09249 9.74564 6.37758 9.59326 6.68795 9.53152C6.99832 9.46979 7.32003 9.50147 7.61239 9.62257C7.90475 9.74367 8.15464 9.94875 8.33045 10.2119C8.50626 10.475 8.6001 10.7843 8.6001 11.1008C8.6001 11.5251 8.43153 11.9321 8.13147 12.2322C7.83141 12.5322 7.42444 12.7008 7.0001 12.7008Z" fill="#00BC6D"/>
</svg>
