<?xml version="1.0" encoding="iso-8859-1"?>
<!-- Generator: Adobe Illustrator 19.0.0, SVG Export Plug-In . SVG Version: 6.00 Build 0)  -->
<svg version="1.1" id="Layer_1" xmlns="http://www.w3.org/2000/svg" xmlns:xlink="http://www.w3.org/1999/xlink" x="0px" y="0px"
	 viewBox="0 0 330.003 330.003" style="enable-background:new 0 0 330.003 330.003;" xml:space="preserve">
<path id="XMLID_506_" d="M328.417,208.293l-40-80c-2.541-5.082-7.735-8.292-13.417-8.292c-5.682,0-10.875,3.21-13.416,8.292
	l-44.868,89.735L158.98,69.565c-2.181-5.609-7.503-9.371-13.519-9.557c-6.006-0.173-11.559,3.243-14.081,8.708L75.402,190.001H15
	c-8.284,0-15,6.716-15,15c0,8.284,6.716,15,15,15h70c5.851,0,11.168-3.402,13.619-8.714l45.201-97.934l57.2,147.085
	c2.15,5.53,7.358,9.273,13.285,9.547c0.233,0.011,0.466,0.016,0.699,0.016c5.659,0,10.864-3.194,13.413-8.292L275,168.542
	l26.584,53.167c3.705,7.41,12.716,10.414,20.124,6.708C329.118,224.713,332.121,215.703,328.417,208.293z"/>
<g>
</g>
<g>
</g>
<g>
</g>
<g>
</g>
<g>
</g>
<g>
</g>
<g>
</g>
<g>
</g>
<g>
</g>
<g>
</g>
<g>
</g>
<g>
</g>
<g>
</g>
<g>
</g>
<g>
</g>
</svg>
