<svg width="14" height="16" viewBox="0 0 14 16" fill="none" xmlns="http://www.w3.org/2000/svg">
<path d="M13.3 11.6667C13.0215 11.6667 12.7545 11.5613 12.5575 11.3738C12.3606 11.1862 12.25 10.9319 12.25 10.6667V7.42533C12.2904 6.15939 11.8539 4.92146 11.0194 3.93533C10.1849 2.94921 9.00748 2.27999 7.7 2.04867V0.666667C7.7 0.489856 7.62625 0.320286 7.49497 0.195262C7.3637 0.0702379 7.18565 0 7 0C6.81435 0 6.6363 0.0702379 6.50503 0.195262C6.37375 0.320286 6.3 0.489856 6.3 0.666667V2.04867C4.99252 2.27999 3.81509 2.94921 2.98058 3.93533C2.14608 4.92146 1.70958 6.15939 1.75 7.42533V10.6667C1.75 10.9319 1.63938 11.1862 1.44246 11.3738C1.24555 11.5613 0.978477 11.6667 0.7 11.6667C0.514348 11.6667 0.336301 11.7369 0.205025 11.8619C0.0737498 11.987 0 12.1565 0 12.3333C0 12.5101 0.0737498 12.6797 0.205025 12.8047C0.336301 12.9298 0.514348 13 0.7 13H13.3C13.4857 13 13.6637 12.9298 13.795 12.8047C13.9263 12.6797 14 12.5101 14 12.3333C14 12.1565 13.9263 11.987 13.795 11.8619C13.6637 11.7369 13.4857 11.6667 13.3 11.6667Z" fill="#222222"/>
<path d="M8.56521 14H5.43481C5.39184 14.0001 5.3504 14.0152 5.31838 14.0425C5.28637 14.0698 5.26602 14.1073 5.26121 14.148C5.25358 14.2095 5.24984 14.2714 5.25001 14.3333C5.25001 14.7754 5.43438 15.1993 5.76257 15.5118C6.09076 15.8244 6.53588 16 7.00001 16C7.46413 16 7.90925 15.8244 8.23744 15.5118C8.56563 15.1993 8.75001 14.7754 8.75001 14.3333C8.75017 14.2714 8.74643 14.2095 8.73881 14.148C8.73429 14.1072 8.71403 14.0695 8.68195 14.0421C8.64987 14.0148 8.60826 13.9998 8.56521 14Z" fill="#222222"/>
</svg>
