<svg width="14" height="10" viewBox="0 0 14 10" fill="none" xmlns="http://www.w3.org/2000/svg">
<path d="M10.9638 0.208936C10.7699 0.365584 10.6462 0.592737 10.6196 0.840543C10.5931 1.08835 10.6659 1.33656 10.8222 1.53071C11.6251 2.5132 12.0636 3.743 12.0636 5.0118C12.0636 6.2806 11.6251 7.51041 10.8222 8.49289C10.6753 8.68783 10.6099 8.93223 10.6399 9.17447C10.6698 9.41672 10.7927 9.63785 10.9826 9.79118C11.1725 9.94451 11.4146 10.018 11.6577 9.99624C11.9008 9.97444 12.1259 9.85902 12.2855 9.67434C13.3601 8.35804 13.947 6.71099 13.947 5.0118C13.947 3.31261 13.3601 1.66557 12.2855 0.349258C12.208 0.253229 12.1123 0.173422 12.0039 0.114396C11.8955 0.0553699 11.7765 0.0182817 11.6537 0.00525074C11.531 -0.0077802 11.4069 0.00350108 11.2885 0.0384502C11.1701 0.0733993 11.0598 0.131331 10.9638 0.208936Z" fill="white"/>
<path d="M9.66458 2.22974C9.5072 2.03892 9.28093 1.91784 9.03486 1.89278C8.78879 1.86772 8.54275 1.94069 8.35014 2.09587C8.15753 2.25105 8.03387 2.47592 8.00599 2.72169C7.97811 2.96746 8.04827 3.21431 8.20123 3.40869C8.57007 3.86152 8.77148 4.42769 8.77148 5.01173C8.77148 5.59577 8.57007 6.16194 8.20123 6.61477C8.04827 6.80915 7.97811 7.056 8.00599 7.30177C8.03387 7.54754 8.15753 7.77241 8.35014 7.92759C8.54275 8.08277 8.78879 8.15574 9.03486 8.13068C9.28093 8.10562 9.5072 7.98454 9.66458 7.79372C10.3058 7.00836 10.656 6.02561 10.656 5.01173C10.656 3.99785 10.3058 3.0151 9.66458 2.22974Z" fill="white"/>
<path d="M5.89578 0.623779H5.26934C5 0.623779 4.69444 0.845561 4.01404 1.25738C3.33364 1.66919 2.77805 2.2583 2.40676 2.96163C2.38028 3.01218 2.34049 3.05454 2.29169 3.08413C2.24289 3.11371 2.18694 3.12941 2.12987 3.12951H0.626433C0.460293 3.12951 0.300957 3.19551 0.183478 3.31299C0.0659992 3.43047 0 3.58981 0 3.75595V6.26168C0 6.42782 0.0659992 6.58716 0.183478 6.70463C0.300957 6.82211 0.460293 6.88811 0.626433 6.88811H2.12987C2.18684 6.88796 2.24276 6.90341 2.29157 6.93278C2.34038 6.96216 2.38022 7.00434 2.40676 7.05474C2.77788 7.75831 3.3334 8.34767 4.01381 8.75971C4.69422 9.17175 5 9.39384 5.26934 9.39384H5.89578C6.06192 9.39384 6.22125 9.32785 6.33873 9.21037C6.45621 9.09289 6.52221 8.93355 6.52221 8.76741V1.25021C6.52221 1.08407 6.45621 0.924736 6.33873 0.807257C6.22125 0.689778 6.06192 0.623779 5.89578 0.623779Z" fill="white"/>
</svg>
