<svg width="16" height="16" viewBox="0 0 16 16" fill="none" xmlns="http://www.w3.org/2000/svg">
<path d="M15.3233 0.42533C15.3382 0.363039 15.3349 0.297769 15.3137 0.237328C15.2925 0.176887 15.2543 0.123835 15.2037 0.08452C15.1532 0.0452051 15.0924 0.0212923 15.0286 0.0156426C14.9648 0.00999296 14.9007 0.0228458 14.844 0.0526632L1.18865 7.212C1.03757 7.29173 0.910097 7.40978 0.819012 7.5543C0.727928 7.69883 0.676429 7.86475 0.669677 8.03545C0.662924 8.20615 0.701156 8.37563 0.78054 8.5269C0.859923 8.67816 0.977671 8.80591 1.12198 8.89733L4.16198 10.8187C4.19253 10.8382 4.22866 10.8472 4.2648 10.8441C4.30094 10.8411 4.33509 10.8263 4.36198 10.802L12.4666 3.55666C12.4978 3.52827 12.5385 3.5127 12.5806 3.51308C12.6227 3.51347 12.6631 3.52979 12.6937 3.55876C12.7242 3.58773 12.7427 3.6272 12.7454 3.66923C12.748 3.71126 12.7347 3.75274 12.708 3.78533L6.23065 11.9093C6.21578 11.9278 6.20505 11.9493 6.19918 11.9723C6.19332 11.9953 6.19245 12.0193 6.19665 12.0427C6.20061 12.0658 6.20935 12.0878 6.22233 12.1073C6.2353 12.1268 6.25221 12.1434 6.27198 12.156L10.56 14.8667C10.6904 14.949 10.8387 14.9991 10.9924 15.0126C11.1461 15.0261 11.3008 15.0027 11.4436 14.9443C11.5865 14.8859 11.7133 14.7943 11.8135 14.677C11.9138 14.5597 11.9846 14.4202 12.02 14.27L15.3233 0.42533Z" fill="#1174DC"/>
</svg>
